<svg width="24" height="24" viewBox="0 0 24 24" fill="none" xmlns="http://www.w3.org/2000/svg">
<path d="M12 12L20.073 7.37502M12 12V21.25M12 12L7.963 9.68802M20.073 7.37502C19.7929 6.8941 19.3911 6.4954 18.908 6.21902L16.25 4.69602M20.073 7.37502C20.348 7.84702 20.5 8.39002 20.5 8.95502V15.045C20.4997 15.601 20.3522 16.147 20.0726 16.6275C19.793 17.1081 19.3912 17.506 18.908 17.781L13.592 20.827C13.1073 21.1045 12.5585 21.2504 12 21.25M12 21.25C11.4415 21.2504 10.8927 21.1045 10.408 20.827L5.092 17.781C4.107 17.217 3.5 16.175 3.5 15.045V8.95502C3.49985 8.39995 3.64685 7.85477 3.926 7.37502M7.963 9.68802L3.926 7.37502M7.963 9.68802L16.25 4.69602M16.25 4.69602L13.592 3.17302C13.1074 2.89512 12.5586 2.7489 12 2.7489C11.4414 2.7489 10.8926 2.89512 10.408 3.17302L5.092 6.21902C4.60855 6.49526 4.2064 6.89397 3.926 7.37502" stroke="black" stroke-width="1.5" stroke-linejoin="round"/>
</svg>
