<svg width="24" height="24" viewBox="0 0 24 24" fill="none" xmlns="http://www.w3.org/2000/svg">
<path d="M2 21C1.71667 21 1.47934 20.904 1.288 20.712C1.09667 20.52 1.00067 20.2827 1 20C0.999337 19.7173 1.09534 19.48 1.288 19.288C1.48067 19.096 1.718 19 2 19H22C22.2833 19 22.521 19.096 22.713 19.288C22.905 19.48 23.0007 19.7173 23 20C22.9993 20.2827 22.9033 20.5203 22.712 20.713C22.5207 20.9057 22.2833 21.0013 22 21H2ZM4 18C3.45 18 2.97934 17.8043 2.588 17.413C2.19667 17.0217 2.00067 16.5507 2 16V5C2 4.45 2.196 3.97933 2.588 3.588C2.98 3.19667 3.45067 3.00067 4 3H20C20.55 3 21.021 3.196 21.413 3.588C21.805 3.98 22.0007 4.45067 22 5V16C22 16.55 21.8043 17.021 21.413 17.413C21.0217 17.805 20.5507 18.0007 20 18H4ZM4 16H20V5H4V16Z" fill="black"/>
</svg>
