<svg width="16" height="16" viewBox="0 0 16 16" fill="none" xmlns="http://www.w3.org/2000/svg">
<path fill-rule="evenodd" clip-rule="evenodd" d="M7.19903 2H8.80003C8.85307 2 8.90394 2.02107 8.94145 2.05858C8.97895 2.09609 9.00003 2.14696 9.00003 2.2C9.00003 4.008 10.958 5.139 12.524 4.234C12.5697 4.20816 12.6238 4.20133 12.6745 4.21498C12.7252 4.22864 12.7685 4.26169 12.795 4.307L13.597 5.695C13.6232 5.7408 13.6302 5.79508 13.6165 5.84603C13.6028 5.89697 13.5696 5.94045 13.524 5.967C11.958 6.871 11.958 9.131 13.524 10.036C13.5693 10.0625 13.6024 10.1058 13.616 10.1565C13.6297 10.2072 13.6229 10.2613 13.597 10.307L12.795 11.695C12.7685 11.7403 12.7252 11.7734 12.6745 11.787C12.6238 11.8007 12.5697 11.7938 12.524 11.768C10.958 10.863 9.00003 11.993 9.00003 13.8C9.00003 13.8529 8.97909 13.9036 8.9418 13.9411C8.90451 13.9785 8.85389 13.9997 8.80102 14H7.20003C7.14698 14 7.09611 13.9789 7.0586 13.9414C7.0211 13.9039 7.00003 13.853 7.00003 13.8C7.00003 11.992 5.04203 10.862 3.47603 11.766C3.43022 11.7922 3.37594 11.7992 3.325 11.7855C3.27406 11.7718 3.23058 11.7386 3.20403 11.693L2.40403 10.305C2.3781 10.2594 2.37111 10.2055 2.38458 10.1548C2.39805 10.1041 2.43089 10.0607 2.47603 10.034C4.04203 9.129 4.04203 6.869 2.47603 5.964C2.43098 5.93746 2.39812 5.89435 2.38448 5.84388C2.37084 5.79342 2.37749 5.73962 2.40303 5.694L3.20403 4.305C3.23074 4.25959 3.27429 4.22656 3.32522 4.21308C3.37615 4.1996 3.43034 4.20676 3.47603 4.233C5.04203 5.138 7.00003 4.007 7.00003 2.199C7.00003 2.089 7.08903 2 7.19903 2ZM5.50003 2.2C5.50003 1.26 6.26003 0.5 7.19903 0.5H8.80003C9.74003 0.5 10.5 1.26 10.5 2.2C10.5003 2.34896 10.5398 2.49523 10.6144 2.62416C10.689 2.75308 10.7962 2.86012 10.9253 2.93456C11.0543 3.009 11.2006 3.04823 11.3496 3.0483C11.4985 3.04838 11.6449 3.00931 11.774 2.935C12.1643 2.71026 12.6277 2.64953 13.0627 2.76614C13.4976 2.88276 13.8686 3.16719 14.094 3.557L14.896 4.945C15.365 5.758 15.086 6.796 14.274 7.265C14.1449 7.33962 14.0376 7.44691 13.9631 7.57611C13.8885 7.7053 13.8492 7.85184 13.8492 8.001C13.8492 8.15017 13.8885 8.2967 13.9631 8.42589C14.0376 8.55509 14.1449 8.66238 14.274 8.737C14.6638 8.96247 14.9483 9.33339 15.0649 9.76835C15.1815 10.2033 15.1208 10.6668 14.896 11.057L14.094 12.445C13.8686 12.8348 13.4976 13.1192 13.0627 13.2359C12.6277 13.3525 12.1643 13.2917 11.774 13.067C11.6449 12.9927 11.4985 12.9536 11.3496 12.9537C11.2006 12.9538 11.0543 12.993 10.9253 13.0674C10.7962 13.1419 10.689 13.2489 10.6144 13.3778C10.5398 13.5068 10.5003 13.653 10.5 13.802C10.5 14.741 9.74002 15.502 8.80102 15.502H7.20003C6.74933 15.5017 6.31719 15.3225 5.99859 15.0037C5.67999 14.6849 5.50103 14.2527 5.50103 13.802C5.50073 13.653 5.46129 13.5068 5.38666 13.3778C5.31202 13.2489 5.20482 13.1419 5.07579 13.0674C4.94676 12.993 4.80043 12.9538 4.65147 12.9537C4.5025 12.9536 4.35613 12.9927 4.22703 13.067C3.83679 13.2917 3.37333 13.3525 2.93837 13.2359C2.50341 13.1192 2.13249 12.8348 1.90703 12.445L1.10503 11.057C0.880282 10.6668 0.819553 10.2033 0.936168 9.76835C1.05278 9.33339 1.33721 8.96247 1.72703 8.737C1.85595 8.66231 1.96298 8.55505 2.03738 8.42596C2.11179 8.29687 2.15095 8.1505 2.15095 8.0015C2.15095 7.8525 2.11179 7.70613 2.03738 7.57704C1.96298 7.44795 1.85595 7.34069 1.72703 7.266C1.33721 7.04053 1.05278 6.66961 0.936168 6.23465C0.819553 5.79969 0.880282 5.33623 1.10503 4.946L1.90603 3.557C2.13149 3.16719 2.50241 2.88276 2.93737 2.76614C3.37233 2.64953 3.83579 2.71026 4.22603 2.935C4.35513 3.00931 4.5015 3.04838 4.65047 3.0483C4.79943 3.04823 4.94576 3.009 5.07479 2.93456C5.20382 2.86012 5.31102 2.75308 5.38566 2.62416C5.46029 2.49523 5.49973 2.34896 5.50003 2.2ZM9.50003 8C9.50003 8.39782 9.34199 8.77936 9.06069 9.06066C8.77938 9.34196 8.39785 9.5 8.00003 9.5C7.6022 9.5 7.22067 9.34196 6.93936 9.06066C6.65806 8.77936 6.50003 8.39782 6.50003 8C6.50003 7.60218 6.65806 7.22064 6.93936 6.93934C7.22067 6.65804 7.6022 6.5 8.00003 6.5C8.39785 6.5 8.77938 6.65804 9.06069 6.93934C9.34199 7.22064 9.50003 7.60218 9.50003 8ZM11 8C11 8.79565 10.684 9.55871 10.1213 10.1213C9.55874 10.6839 8.79567 11 8.00003 11C7.20438 11 6.44131 10.6839 5.87871 10.1213C5.3161 9.55871 5.00003 8.79565 5.00003 8C5.00003 7.20435 5.3161 6.44129 5.87871 5.87868C6.44131 5.31607 7.20438 5 8.00003 5C8.79567 5 9.55874 5.31607 10.1213 5.87868C10.684 6.44129 11 7.20435 11 8Z" fill="black"/>
</svg>
