<svg width="45" height="45" viewBox="0 0 45 45" fill="none" xmlns="http://www.w3.org/2000/svg">
<path d="M9.375 16.875C9.375 13.394 10.7578 10.0556 13.2192 7.59422C15.6806 5.13281 19.019 3.75 22.5 3.75C25.981 3.75 29.3194 5.13281 31.7808 7.59422C34.2422 10.0556 35.625 13.394 35.625 16.875V18.8156C38.805 19.2713 41.25 22.0069 41.25 25.3125V25.7813C41.25 29.1094 38.3794 32.0269 35.0025 31.8713C33.615 35.8462 30.0863 38.5256 26.2781 39.2044C25.3969 39.5269 24.3544 39.375 23.4375 39.375C22.6916 39.375 21.9762 39.0787 21.4488 38.5512C20.9213 38.0238 20.625 37.3084 20.625 36.5625C20.625 35.8166 20.9213 35.1012 21.4488 34.5738C21.9762 34.0463 22.6916 33.75 23.4375 33.75C24.9244 33.75 26.5706 33.5344 27.5756 34.8919C30.0056 33.735 31.875 31.2919 31.875 28.125V16.875C31.875 14.3886 30.8873 12.004 29.1291 10.2459C27.371 8.48772 24.9864 7.5 22.5 7.5C20.0136 7.5 17.629 8.48772 15.8709 10.2459C14.1127 12.004 13.125 14.3886 13.125 16.875V28.5938C13.125 29.464 12.7793 30.2986 12.1639 30.9139C11.5486 31.5293 10.714 31.875 9.84375 31.875C8.22759 31.875 6.67762 31.233 5.53482 30.0902C4.39202 28.9474 3.75 27.3974 3.75 25.7813V25.3125C3.7496 23.7342 4.31805 22.2085 5.35117 21.0153C6.38428 19.822 7.81284 19.0411 9.375 18.8156V16.875Z" fill="black"/>
</svg>
