<svg width="54" height="54" viewBox="0 0 54 54" fill="none" xmlns="http://www.w3.org/2000/svg">
<circle cx="27" cy="27" r="27" fill="#68F263"/>
<path d="M25.6665 25.4019V39.3237C25.6577 39.3203 25.648 39.3175 25.6392 39.314H25.6382L15.6333 35.311C15.2006 35.138 14.8293 34.8394 14.5679 34.4536C14.3065 34.0677 14.1668 33.6121 14.1665 33.146V20.853C14.1665 20.8361 14.1671 20.8191 14.1675 20.8022L25.6665 25.4019ZM39.8335 20.854V33.146C39.8333 33.6121 39.6935 34.0677 39.4321 34.4536C39.1707 34.8397 38.7987 35.1389 38.3657 35.312L28.3618 39.313H28.3608C28.352 39.3165 28.3424 39.3183 28.3335 39.3218V25.4019L39.8315 20.8022C39.8319 20.8195 39.8335 20.8367 39.8335 20.854ZM30.8296 21.5317L26.9995 23.064L15.8452 18.6021L19.6812 17.0679L30.8296 21.5317ZM25.6382 14.686C26.5123 14.3364 27.4877 14.3354 28.3618 14.6851L38.1519 18.6021L34.4175 20.0962L23.271 15.6313L25.6382 14.6851V14.686Z" fill="#1FCD1A" stroke="#146912"/>
</svg>
