<svg width="54" height="54" viewBox="0 0 54 54" fill="none" xmlns="http://www.w3.org/2000/svg">
<circle cx="27" cy="27" r="27" fill="#68F263"/>
<path d="M24.3333 14.1667H29.6682C29.7093 14.1667 29.749 14.1813 29.7805 14.2078C29.8109 14.2333 29.8314 14.2685 29.8391 14.3074L30.3313 17.8289L30.3713 18.1179L30.6418 18.2244C31.4271 18.536 32.1087 18.9627 32.7805 19.4666L33.0051 19.6355L33.2668 19.531L36.5862 18.197L36.5891 18.196C36.615 18.1855 36.6518 18.1833 36.6907 18.197C36.7283 18.2103 36.7575 18.235 36.7747 18.2664L36.7805 18.2771L39.4407 22.8787V22.8796C39.4902 22.9705 39.4614 23.0575 39.4124 23.0984L36.6008 25.2712L36.3772 25.4441L36.4104 25.7253C36.4629 26.1716 36.5002 26.5889 36.5002 26.9998C36.5002 27.4101 36.4626 27.8139 36.4104 28.2312L36.3752 28.5115L36.5979 28.6863L39.4104 30.8992C39.4483 30.9291 39.4752 30.9867 39.4651 31.0525L39.4407 31.1208L36.7805 35.7234L36.7747 35.7341C36.7601 35.7608 36.7347 35.7832 36.6956 35.7966C36.6538 35.8109 36.6079 35.8097 36.5715 35.7966L33.2678 34.4568L33.0022 34.3494L32.7756 34.5242C32.1112 35.0353 31.4287 35.4509 30.636 35.7781L30.3713 35.8875L30.3313 36.1707L29.8401 39.6912C29.8271 39.769 29.7562 39.8337 29.6663 39.8337H24.3333C24.2452 39.8337 24.1754 39.7717 24.1604 39.696L23.6682 36.1707L23.6282 35.8826L23.3577 35.7751C22.5731 35.4638 21.8934 35.0384 21.2249 34.5242L20.9973 34.3494L20.7317 34.4568L17.429 35.7966C17.3926 35.8098 17.3468 35.8109 17.3049 35.7966C17.2658 35.7833 17.2405 35.7608 17.2258 35.7341L17.22 35.7234L14.553 31.1101L14.55 31.1062L14.5305 31.0515C14.5206 30.9958 14.5413 30.9384 14.5891 30.9001L17.4026 28.6863L17.6243 28.5115L17.5891 28.2312C17.537 27.8139 17.5002 27.41 17.5002 26.9998C17.5003 26.5889 17.5376 26.1716 17.5901 25.7253L17.6233 25.4441L17.3987 25.2712L14.5862 23.0974C14.525 23.0461 14.5098 22.9625 14.55 22.8943L14.553 22.8904L17.22 18.2771L17.2258 18.2664C17.243 18.2349 17.2721 18.2103 17.3098 18.197C17.3485 18.1835 17.3846 18.1856 17.4104 18.196L17.4133 18.197L20.7336 19.531L20.9944 19.6355L21.22 19.4666C21.8918 18.9627 22.5725 18.5359 23.3577 18.2244L23.6282 18.1179L23.6682 17.8289L24.1604 14.3044C24.1753 14.2286 24.2451 14.1668 24.3333 14.1667ZM27.0002 21.8337C25.6301 21.8337 24.3158 22.3777 23.3469 23.3464C22.3781 24.3153 21.8333 25.6296 21.8333 26.9998C21.8333 28.37 22.378 29.6841 23.3469 30.6531C24.3159 31.622 25.63 32.1667 27.0002 32.1667C28.3705 32.1667 29.6847 31.622 30.6536 30.6531C31.6223 29.6842 32.1663 28.3699 32.1663 26.9998C32.1662 25.6296 31.6224 24.3153 30.6536 23.3464C29.6847 22.3776 28.3704 21.8338 27.0002 21.8337Z" fill="#1FCD1A" stroke="#146912"/>
</svg>
