<svg width="54" height="54" viewBox="0 0 54 54" fill="none" xmlns="http://www.w3.org/2000/svg">
<circle cx="27" cy="27" r="27" fill="#68F263"/>
<path d="M41.1663 36.833V38.5H12.8333V36.833H41.1663ZM37.6663 15.5C38.2658 15.5 38.7678 15.708 39.1975 16.1377C39.627 16.5673 39.834 17.0679 39.8333 17.666V32.333C39.8333 32.9328 39.6255 33.4346 39.1965 33.8643C38.7681 34.2933 38.2675 34.5007 37.6672 34.5H16.3333C15.7335 34.5 15.2326 34.2928 14.804 33.8643C14.3753 33.4356 14.1671 32.934 14.1663 32.333V17.667C14.1663 17.0675 14.3745 16.5664 14.804 16.1377C15.1801 15.7623 15.6106 15.556 16.1135 15.5098L16.3342 15.5H37.6663ZM15.8333 32.833H38.1663V17.167H15.8333V32.833Z" fill="#1FCD1A" stroke="#146912"/>
</svg>
