<svg width="52" height="54" viewBox="0 0 52 54" fill="none" xmlns="http://www.w3.org/2000/svg">
<ellipse cx="25.6473" cy="27" rx="25.6473" ry="27" fill="#68F263"/>
<path d="M30.8704 28.8C32.3221 28.8042 34.5181 29.1723 36.343 29.9026C37.2604 30.2697 38.053 30.7162 38.6077 31.2278C39.1587 31.7361 39.4417 32.2748 39.4417 32.8479V35.5969H32.6448V32.8479C32.6448 31.1896 31.9327 29.8539 30.8704 28.8ZM20.4495 28.8C21.9009 28.8001 24.1121 29.1681 25.9475 29.9026C26.8647 30.2697 27.6565 30.7163 28.2112 31.2278C28.7624 31.7362 29.0461 32.2747 29.0461 32.8479V35.5969H11.8528V32.8479C11.8528 32.2747 12.1365 31.7362 12.6877 31.2278C13.2424 30.7162 14.0341 30.2697 14.9514 29.9026C16.7869 29.1681 18.998 28.8 20.4495 28.8ZM20.4495 18.4036C22.3282 18.4036 23.8352 19.9189 23.8352 21.802C23.8352 23.6852 22.3283 25.2004 20.4495 25.2004C18.5684 25.2004 17.051 23.683 17.051 21.802C17.0511 19.921 18.5685 18.4036 20.4495 18.4036ZM30.845 18.4036C32.7238 18.4036 34.2307 19.9188 34.2307 21.802C34.2307 23.6852 32.7238 25.2004 30.845 25.2004C28.9641 25.2002 27.4465 23.6829 27.4465 21.802C27.4466 19.9211 28.9641 18.4038 30.845 18.4036Z" fill="#1FCD1A" stroke="#146912"/>
</svg>
