<svg width="80" height="80" viewBox="0 0 80 80" fill="none" xmlns="http://www.w3.org/2000/svg">
<circle cx="40" cy="40" r="39" stroke="#146912" stroke-width="2"/>
<path d="M40 15.5C44.5087 15.5 48.8324 17.2914 52.0205 20.4795C55.2086 23.6676 57 27.9913 57 32.5C57 35.6801 55.9374 39.2777 54.3096 42.9111C52.6847 46.538 50.514 50.1644 48.3359 53.3926C46.1588 56.6193 43.9799 59.4386 42.3457 61.4521C41.5288 62.4586 40.8488 63.2633 40.373 63.8154C40.2299 63.9816 40.1042 64.1241 40 64.2432C39.8958 64.1241 39.7701 63.9816 39.627 63.8154C39.1512 63.2633 38.4712 62.4586 37.6543 61.4521C36.0201 59.4386 33.8412 56.6193 31.6641 53.3926C29.486 50.1644 27.3153 46.538 25.6904 42.9111C24.0626 39.2777 23 35.6801 23 32.5C23 27.9913 24.7914 23.6676 27.9795 20.4795C31.1676 17.2914 35.4913 15.5 40 15.5ZM40 25.75C38.2098 25.75 36.4924 26.4607 35.2266 27.7266C33.9607 28.9924 33.25 30.7098 33.25 32.5C33.25 34.2902 33.9607 36.0076 35.2266 37.2734C36.4924 38.5393 38.2098 39.25 40 39.25C40.8864 39.25 41.7641 39.0755 42.583 38.7363C43.402 38.3971 44.1466 37.9002 44.7734 37.2734C45.4002 36.6466 45.8971 35.902 46.2363 35.083C46.5755 34.2641 46.75 33.3864 46.75 32.5C46.75 30.7098 46.0393 28.9924 44.7734 27.7266C43.5076 26.4607 41.7902 25.75 40 25.75Z" fill="#68F263" stroke="#146912"/>
</svg>
