<svg width="60" height="60" viewBox="0 0 60 60" fill="none" xmlns="http://www.w3.org/2000/svg">
<circle cx="30" cy="30" r="29" stroke="#146912" stroke-width="2"/>
<path d="M30.0083 17.6162C34.6375 17.5389 39.2676 17.7094 43.8784 18.1279C44.8588 18.3094 45.7469 18.8214 46.396 19.5771C47.4178 21.6186 47.9123 23.8838 47.8335 26.166V26.1826C47.8335 27.1998 47.833 32.8031 47.7681 33.7139L47.7661 33.7344L47.7671 33.7549C47.788 35.6239 47.5029 37.4844 46.9243 39.2617V39.2637C46.7472 39.814 46.4421 40.3145 46.0347 40.7246C45.4121 41.3308 44.6215 41.7354 43.7661 41.8867C37.7478 42.35 32.6538 42.4327 26.8403 42.3496H26.8228C23.2327 42.4274 19.6415 42.2458 16.0776 41.8057C15.2469 41.6484 14.4821 41.2473 13.8794 40.6543C13.3645 40.0724 13.0003 39.3731 12.8198 38.6172L12.8169 38.6074L12.7192 38.21C12.5035 37.2802 12.3739 36.3321 12.3325 35.3779H12.3335L12.3325 35.3662L12.2524 34.0254C12.0938 30.8963 12.12 27.7595 12.3315 24.6328C12.4155 23.6245 12.4979 22.5789 12.7358 21.6133C12.9734 20.6491 13.3555 19.8172 14.0054 19.2178L14.0103 19.2129C14.6102 18.6446 15.362 18.2621 16.1743 18.1113C20.7681 17.7034 25.3805 17.5383 29.9917 17.6162H30.0083ZM25.7329 35.5889L26.4712 35.1895C28.1893 34.2598 29.9581 33.3628 31.6489 32.5039C33.3367 31.6465 34.9496 30.8255 36.3423 30.0537L37.1528 29.6045L36.3325 29.1738L26.4663 23.9902L25.7329 23.6055V35.5889Z" fill="#1FCD1A" stroke="#146912"/>
</svg>
