<svg width="45" height="45" viewBox="0 0 45 45" fill="none" xmlns="http://www.w3.org/2000/svg">
<path d="M40.6055 19.6875C41.2207 19.6875 41.792 19.7974 42.3193 20.0171C42.8467 20.2368 43.3154 20.5444 43.7256 20.9399C44.1357 21.3354 44.4434 21.7969 44.6484 22.3242C44.8535 22.8516 44.9707 23.4229 45 24.0381C45 24.6094 44.8901 25.166 44.6704 25.708C44.4507 26.25 44.1357 26.7261 43.7256 27.1362L27.9712 42.9346L19.6875 45L21.7529 36.7163L37.5073 20.9399C37.9175 20.5298 38.3936 20.2222 38.9355 20.0171C39.4775 19.812 40.0342 19.7021 40.6055 19.6875ZM41.7261 25.1587C42.0337 24.8511 42.1875 24.4775 42.1875 24.0381C42.1875 23.584 42.041 23.2178 41.748 22.9395C41.4551 22.6611 41.0742 22.5146 40.6055 22.5C40.4004 22.5 40.2026 22.5293 40.0122 22.5879C39.8218 22.6465 39.6533 22.7563 39.5068 22.9175L24.3018 38.1665L23.5547 41.1328L26.521 40.3857L41.7261 25.1587ZM14.0625 19.6875H11.25V16.875H14.0625V19.6875ZM33.75 19.6875H16.875V16.875H33.75V19.6875ZM11.25 25.3125H14.0625V28.125H11.25V25.3125ZM14.0625 11.25H11.25V8.4375H14.0625V11.25ZM33.75 11.25H16.875V8.4375H33.75V11.25ZM8.4375 36.5625H18.1714L17.4683 39.375H5.625V0H39.375V16.3257C38.3936 16.4722 37.4561 16.7944 36.5625 17.2925V2.8125H8.4375V36.5625ZM16.875 25.3125H28.1689L25.3564 28.125H16.875V25.3125Z" fill="black"/>
</svg>
