<svg width="60" height="60" viewBox="0 0 60 60" fill="none" xmlns="http://www.w3.org/2000/svg">
<circle cx="30" cy="30" r="29" stroke="#146912" stroke-width="2"/>
<path d="M23.333 15.5H36.667C38.7444 15.5001 40.7371 16.325 42.2061 17.7939C43.675 19.2629 44.4999 21.2556 44.5 23.333V36.667C44.4999 38.7444 43.675 40.7371 42.2061 42.2061C40.7371 43.675 38.7444 44.4999 36.667 44.5H23.333C21.2556 44.4999 19.2629 43.675 17.7939 42.2061C16.325 40.7371 15.5001 38.7444 15.5 36.667V23.333C15.5001 21.2556 16.325 19.2629 17.7939 17.7939C19.2629 16.325 21.2556 15.5001 23.333 15.5ZM30 22.833C28.0993 22.833 26.2766 23.5886 24.9326 24.9326C23.5886 26.2766 22.833 28.0993 22.833 30C22.833 31.9007 23.5886 33.7234 24.9326 35.0674C26.2766 36.4114 28.0993 37.167 30 37.167C31.9007 37.167 33.7234 36.4114 35.0674 35.0674C36.4114 33.7234 37.167 31.9007 37.167 30C37.167 28.0993 36.4114 26.2766 35.0674 24.9326C33.7234 23.5886 31.9007 22.833 30 22.833ZM30 27.167C30.7514 27.167 31.4726 27.4647 32.0039 27.9961C32.5353 28.5274 32.833 29.2486 32.833 30C32.833 30.7514 32.5353 31.4726 32.0039 32.0039C31.4726 32.5353 30.7514 32.833 30 32.833C29.2486 32.833 28.5274 32.5353 27.9961 32.0039C27.4647 31.4726 27.167 30.7514 27.167 30C27.167 29.2486 27.4647 28.5274 27.9961 27.9961C28.5274 27.4647 29.2486 27.167 30 27.167ZM37.5 20.333C36.9254 20.333 36.3741 20.5614 35.9678 20.9678C35.5614 21.3741 35.333 21.9254 35.333 22.5C35.333 23.0746 35.5614 23.6259 35.9678 24.0322C36.3741 24.4386 36.9254 24.667 37.5 24.667C38.0746 24.667 38.6259 24.4386 39.0322 24.0322C39.4386 23.6259 39.667 23.0746 39.667 22.5C39.667 21.9254 39.4386 21.3741 39.0322 20.9678C38.6259 20.5614 38.0746 20.333 37.5 20.333Z" fill="#1FCD1A" stroke="#146912"/>
</svg>
