<svg width="60" height="60" viewBox="0 0 60 60" fill="none" xmlns="http://www.w3.org/2000/svg">
<circle cx="30" cy="30" r="29" stroke="#146912" stroke-width="2"/>
<path d="M23.333 14.25H36.667C39.0759 14.2501 41.3865 15.2068 43.0898 16.9102C44.7932 18.6135 45.7499 20.9241 45.75 23.333V36.667C45.7499 39.0759 44.7932 41.3865 43.0898 43.0898C41.3865 44.7932 39.0759 45.7499 36.667 45.75H23.333C20.9241 45.7499 18.6135 44.7932 16.9102 43.0898C15.2068 41.3865 14.2501 39.0759 14.25 36.667V23.333C14.2501 20.9241 15.2068 18.6135 16.9102 16.9102C18.6135 15.2068 20.9241 14.2501 23.333 14.25ZM32.5713 18.5049C32.2162 18.2905 31.7962 18.209 31.3867 18.2754C30.9772 18.3418 30.6042 18.5515 30.335 18.8672C30.0658 19.1829 29.9179 19.5842 29.917 19.999V35C29.917 35.6428 29.7262 36.2712 29.3691 36.8057C29.012 37.3401 28.504 37.7569 27.9102 38.0029C27.3164 38.2488 26.6626 38.3129 26.0322 38.1875C25.4019 38.062 24.8226 37.7523 24.3682 37.2979C23.9138 36.8434 23.6049 36.2641 23.4795 35.6338C23.3541 35.0034 23.4181 34.3497 23.6641 33.7559C23.9101 33.1622 24.327 32.6549 24.8613 32.2979C25.3958 31.9408 26.0243 31.75 26.667 31.75C27.131 31.7499 27.5762 31.5654 27.9043 31.2373C28.2324 30.9091 28.417 30.4641 28.417 30C28.417 29.5359 28.2324 29.0909 27.9043 28.7627C27.5762 28.4346 27.131 28.2501 26.667 28.25C25.3321 28.25 24.027 28.6461 22.917 29.3877C21.807 30.1294 20.9416 31.1836 20.4307 32.417C19.9198 33.6502 19.7856 35.0072 20.0459 36.3164C20.3063 37.6258 20.9496 38.8294 21.8936 39.7734C22.8375 40.7173 24.0404 41.3597 25.3496 41.6201C26.659 41.8806 28.0166 41.7472 29.25 41.2363C30.4833 40.7254 31.5376 39.86 32.2793 38.75C33.0209 37.64 33.417 36.335 33.417 35V25.1543C34.6851 26.0755 36.3224 26.7499 38.333 26.75C38.7971 26.75 39.2421 26.5654 39.5703 26.2373C39.8985 25.9091 40.083 25.4641 40.083 25C40.083 24.5359 39.8985 24.0909 39.5703 23.7627C39.2421 23.4346 38.7971 23.25 38.333 23.25C36.8654 23.2499 35.7517 22.6506 34.9121 21.8555H34.9131C34.0451 21.0308 33.523 20.0352 33.3262 19.4463H33.3252C33.1932 19.0531 32.9263 18.7193 32.5713 18.5049Z" fill="#1FCD1A" stroke="#146912"/>
</svg>
