<svg width="80" height="80" viewBox="0 0 80 80" fill="none" xmlns="http://www.w3.org/2000/svg">
<circle cx="40" cy="40" r="39" stroke="#146912" stroke-width="2"/>
<path d="M20 20.5H60C62.4739 20.5 64.5 22.5261 64.5 25V55C64.5 57.4739 62.4739 59.5 60 59.5H20C17.5261 59.5 15.5 57.4739 15.5 55L15.5254 25C15.5254 22.5229 17.5294 20.5 20 20.5ZM58.4893 26.2012C58.1417 26.1296 57.7833 26.1293 57.4355 26.2002C57.0953 26.2696 56.7725 26.4065 56.4854 26.6016V26.6006L40 36.9102L23.5146 26.6006L23.5137 26.6016C23.2267 26.4067 22.9045 26.2695 22.5645 26.2002C22.2167 26.1293 21.8583 26.1296 21.5107 26.2012C21.1629 26.2729 20.8326 26.4144 20.541 26.6172C20.2496 26.8199 20.0026 27.0798 19.8145 27.3809C19.6262 27.682 19.5008 28.0182 19.4463 28.3691C19.3918 28.7199 19.4092 29.078 19.4971 29.4219C19.585 29.7659 19.7417 30.0894 19.958 30.3711C20.1694 30.6464 20.4344 30.8753 20.7354 31.0479V31.0488L38.4102 42.0986C39.3723 42.7 40.6277 42.7 41.5898 42.0986L59.2646 31.0488L59.2637 31.0479C59.565 30.8752 59.8304 30.6466 60.042 30.3711C60.2583 30.0894 60.415 29.7659 60.5029 29.4219C60.5908 29.078 60.6082 28.7199 60.5537 28.3691C60.4992 28.0182 60.3738 27.682 60.1855 27.3809C59.9974 27.0798 59.7504 26.8199 59.459 26.6172C59.1674 26.4144 58.8371 26.2729 58.4893 26.2012Z" fill="#68F263" stroke="#146912"/>
</svg>
