<svg width="80" height="80" viewBox="0 0 80 80" fill="none" xmlns="http://www.w3.org/2000/svg">
<circle cx="40" cy="40" r="39" stroke="#146912" stroke-width="2"/>
<path d="M40 15.5C44.5087 15.5 48.8324 17.2914 52.0205 20.4795C55.2086 23.6676 57 27.9913 57 32.5V35.5205L57.4287 35.582C61.426 36.1548 64.5 39.5948 64.5 43.75V44.375C64.5 48.5437 60.8947 52.1885 56.6934 51.9951L56.3203 51.9785L56.1982 52.3301C54.413 57.4446 49.8656 60.904 44.9502 61.7803L44.9062 61.7881L44.8652 61.8027C44.3578 61.9884 43.7843 62.0448 43.1592 62.0479C42.8479 62.0494 42.5325 62.0377 42.2109 62.0254C41.8933 62.0132 41.567 62 41.25 62C40.388 62 39.5616 61.6573 38.9521 61.0479C38.3427 60.4384 38 59.612 38 58.75C38 57.888 38.3427 57.0616 38.9521 56.4521C39.5616 55.8427 40.388 55.5 41.25 55.5C42.2908 55.5 43.2592 55.4302 44.1709 55.5762C45.0472 55.7165 45.795 56.05 46.3652 56.8203L46.6104 57.1514L46.9824 56.9736C50.3769 55.3575 53 51.9361 53 47.5V32.5C53 29.0522 51.6304 25.7456 49.1924 23.3076C46.7544 20.8696 43.4478 19.5 40 19.5C36.5522 19.5 33.2456 20.8696 30.8076 23.3076C28.3696 25.7456 27 29.0522 27 32.5V48.125C27 49.1527 26.5919 50.1385 25.8652 50.8652C25.1385 51.5919 24.1527 52 23.125 52C21.1027 52 19.1634 51.1966 17.7334 49.7666C16.3034 48.3366 15.5 46.3973 15.5 44.375V43.75L15.5078 43.3789C15.5906 41.5277 16.2951 39.754 17.5127 38.3477C18.8115 36.8476 20.6075 35.8655 22.5713 35.582L23 35.5205V32.5C23 27.9913 24.7914 23.6676 27.9795 20.4795C31.1676 17.2914 35.4913 15.5 40 15.5Z" fill="#68F263" stroke="#146912"/>
</svg>
