<svg width="53" height="54" viewBox="0 0 53 54" fill="none" xmlns="http://www.w3.org/2000/svg">
<circle cx="26.2594" cy="27.0001" r="26.2594" fill="#68F263"/>
<g filter="url(#filter0_d_89_154)">
<mask id="path-2-inside-1_89_154" fill="white">
<path d="M26.4332 12.2292L10.6274 22.0765L26.4332 31.9238L39.3651 23.8654V35.2062H42.2389V22.0765M16.375 28.9368V35.5016L26.4332 41.771L36.4913 35.5016V28.9368L26.4332 35.2062L16.375 28.9368Z"/>
</mask>
<path d="M26.4332 12.2292L10.6274 22.0765L26.4332 31.9238L39.3651 23.8654V35.2062H42.2389V22.0765M16.375 28.9368V35.5016L26.4332 41.771L36.4913 35.5016V28.9368L26.4332 35.2062L16.375 28.9368Z" fill="#1FCD1A"/>
<path d="M10.6274 22.0765L10.0987 21.2278L8.73633 22.0765L10.0987 22.9253L10.6274 22.0765ZM26.4332 31.9238L25.9044 32.7725L26.4332 33.102L26.962 32.7725L26.4332 31.9238ZM39.3651 23.8654H40.3651V22.064L38.8362 23.0167L39.3651 23.8654ZM39.3651 35.2062H38.3651V36.2062H39.3651V35.2062ZM42.2389 35.2062V36.2062H43.2389V35.2062H42.2389ZM16.375 28.9368L16.9039 28.0881L15.375 27.1351V28.9368H16.375ZM16.375 35.5016H15.375V36.0567L15.846 36.3503L16.375 35.5016ZM26.4332 41.771L25.9042 42.6197L26.4332 42.9494L26.9621 42.6197L26.4332 41.771ZM36.4913 35.5016L37.0203 36.3503L37.4913 36.0567V35.5016H36.4913ZM36.4913 28.9368H37.4913V27.1351L35.9624 28.0881L36.4913 28.9368ZM26.4332 35.2062L25.9042 36.0548L26.4332 36.3846L26.9621 36.0548L26.4332 35.2062ZM26.4332 12.2292L25.9044 11.3805L10.0987 21.2278L10.6274 22.0765L11.1562 22.9253L26.9619 13.078L26.4332 12.2292ZM10.6274 22.0765L10.0987 22.9253L25.9044 32.7725L26.4332 31.9238L26.9619 31.075L11.1562 21.2278L10.6274 22.0765ZM26.4332 31.9238L26.962 32.7725L39.894 24.7141L39.3651 23.8654L38.8362 23.0167L25.9043 31.0751L26.4332 31.9238ZM39.3651 23.8654H38.3651V35.2062H39.3651H40.3651V23.8654H39.3651ZM39.3651 35.2062V36.2062H42.2389V35.2062V34.2062H39.3651V35.2062ZM42.2389 35.2062H43.2389V22.0765H42.2389H41.2389V35.2062H42.2389ZM16.375 28.9368H15.375V35.5016H16.375H17.375V28.9368H16.375ZM16.375 35.5016L15.846 36.3503L25.9042 42.6197L26.4332 41.771L26.9621 40.9224L16.9039 34.653L16.375 35.5016ZM26.4332 41.771L26.9621 42.6197L37.0203 36.3503L36.4913 35.5016L35.9624 34.653L25.9042 40.9224L26.4332 41.771ZM36.4913 35.5016H37.4913V28.9368H36.4913H35.4913V35.5016H36.4913ZM36.4913 28.9368L35.9624 28.0881L25.9042 34.3576L26.4332 35.2062L26.9621 36.0548L37.0203 29.7854L36.4913 28.9368ZM26.4332 35.2062L26.9621 34.3576L16.9039 28.0881L16.375 28.9368L15.846 29.7854L25.9042 36.0548L26.4332 35.2062Z" fill="#146912" mask="url(#path-2-inside-1_89_154)"/>
</g>
<defs>
<filter id="filter0_d_89_154" x="7.19067" y="7.30566" width="42.4851" height="47.3892" filterUnits="userSpaceOnUse" color-interpolation-filters="sRGB">
<feFlood flood-opacity="0" result="BackgroundImageFix"/>
<feColorMatrix in="SourceAlpha" type="matrix" values="0 0 0 0 0 0 0 0 0 0 0 0 0 0 0 0 0 0 127 0" result="hardAlpha"/>
<feOffset dx="2" dy="4"/>
<feGaussianBlur stdDeviation="2"/>
<feComposite in2="hardAlpha" operator="out"/>
<feColorMatrix type="matrix" values="0 0 0 0 0 0 0 0 0 0 0 0 0 0 0 0 0 0 0.25 0"/>
<feBlend mode="normal" in2="BackgroundImageFix" result="effect1_dropShadow_89_154"/>
<feBlend mode="normal" in="SourceGraphic" in2="effect1_dropShadow_89_154" result="shape"/>
</filter>
</defs>
</svg>
