<svg width="52" height="54" viewBox="0 0 52 54" fill="none" xmlns="http://www.w3.org/2000/svg">
<ellipse cx="25.6419" cy="27" rx="25.6419" ry="27" fill="#68F263"/>
<g filter="url(#filter0_d_89_158)">
<path d="M17.7913 18.1667H38.5579C39.5138 18.1667 40.3372 18.996 40.3372 20.0671V31.2664C40.3372 32.3375 39.5139 33.1667 38.5579 33.1667H36.5383V35.2664C36.5383 35.5192 36.491 35.7694 36.3997 36.0017C36.3082 36.2341 36.1746 36.4445 36.0081 36.6199C35.8417 36.795 35.6457 36.9328 35.4319 37.0261C35.2179 37.1195 34.989 37.1667 34.759 37.1667H13.9924C13.5292 37.1667 13.0793 36.9734 12.7434 36.6199C12.4067 36.2653 12.2131 35.7784 12.2131 35.2664V24.0671C12.2131 23.5551 12.4067 23.0682 12.7434 22.7136C13.0793 22.3601 13.5292 22.1667 13.9924 22.1667H16.012V20.0671C16.012 18.996 16.8353 18.1667 17.7913 18.1667ZM24.3762 26.4998C23.5634 26.4998 22.7894 26.8408 22.2229 27.4373C21.6573 28.0329 21.343 28.835 21.343 29.6667C21.343 30.4985 21.6573 31.3006 22.2229 31.8962C22.7894 32.4927 23.5634 32.8337 24.3762 32.8337C25.1889 32.8336 25.9632 32.4926 26.5295 31.8962C27.0949 31.3007 27.4084 30.4983 27.4084 29.6667L27.3938 29.3562C27.326 28.6376 27.0242 27.9583 26.5295 27.4373C25.9632 26.8409 25.1889 26.4999 24.3762 26.4998ZM17.5442 22.1667H34.759C34.989 22.1667 35.2179 22.214 35.4319 22.3074C35.6458 22.4007 35.8417 22.5385 36.0081 22.7136C36.1746 22.889 36.3082 23.0994 36.3997 23.3318C36.491 23.5641 36.5383 23.8143 36.5383 24.0671V31.4998H38.8049V19.8337H17.5442V22.1667Z" fill="#1FCD1A" stroke="#146912"/>
</g>
<defs>
<filter id="filter0_d_89_158" x="8.44678" y="11" width="38.3904" height="40" filterUnits="userSpaceOnUse" color-interpolation-filters="sRGB">
<feFlood flood-opacity="0" result="BackgroundImageFix"/>
<feColorMatrix in="SourceAlpha" type="matrix" values="0 0 0 0 0 0 0 0 0 0 0 0 0 0 0 0 0 0 127 0" result="hardAlpha"/>
<feOffset dx="2" dy="4"/>
<feGaussianBlur stdDeviation="2"/>
<feComposite in2="hardAlpha" operator="out"/>
<feColorMatrix type="matrix" values="0 0 0 0 0 0 0 0 0 0 0 0 0 0 0 0 0 0 0.25 0"/>
<feBlend mode="normal" in2="BackgroundImageFix" result="effect1_dropShadow_89_158"/>
<feBlend mode="normal" in="SourceGraphic" in2="effect1_dropShadow_89_158" result="shape"/>
</filter>
</defs>
</svg>
