<svg width="45" height="45" viewBox="0 0 45 45" fill="none" xmlns="http://www.w3.org/2000/svg">
<path d="M7.50001 33.75C6.96876 33.75 6.52376 33.57 6.16501 33.21C5.80626 32.85 5.62626 32.405 5.62501 31.875C5.62376 31.345 5.80376 30.9 6.16501 30.54C6.52626 30.18 6.97126 30 7.50001 30H37.5C38.0313 30 38.4769 30.18 38.8369 30.54C39.1969 30.9 39.3763 31.345 39.375 31.875C39.3738 32.405 39.1938 32.8506 38.835 33.2119C38.4763 33.5731 38.0313 33.7525 37.5 33.75H7.50001ZM7.50001 24.375C6.96876 24.375 6.52376 24.195 6.16501 23.835C5.80626 23.475 5.62626 23.03 5.62501 22.5C5.62376 21.97 5.80376 21.525 6.16501 21.165C6.52626 20.805 6.97126 20.625 7.50001 20.625H37.5C38.0313 20.625 38.4769 20.805 38.8369 21.165C39.1969 21.525 39.3763 21.97 39.375 22.5C39.3738 23.03 39.1938 23.4756 38.835 23.8369C38.4763 24.1981 38.0313 24.3775 37.5 24.375H7.50001ZM7.50001 15C6.96876 15 6.52376 14.82 6.16501 14.46C5.80626 14.1 5.62626 13.655 5.62501 13.125C5.62376 12.595 5.80376 12.15 6.16501 11.79C6.52626 11.43 6.97126 11.25 7.50001 11.25H37.5C38.0313 11.25 38.4769 11.43 38.8369 11.79C39.1969 12.15 39.3763 12.595 39.375 13.125C39.3738 13.655 39.1938 14.1006 38.835 14.4619C38.4763 14.8231 38.0313 15.0025 37.5 15H7.50001Z" fill="black"/>
</svg>
