<svg width="45" height="45" viewBox="0 0 45 45" fill="none" xmlns="http://www.w3.org/2000/svg">
<path fill-rule="evenodd" clip-rule="evenodd" d="M7.5 12.75V15H5.25C4.35489 15 3.49645 15.3556 2.86351 15.9885C2.23058 16.6214 1.875 17.4799 1.875 18.375V34.125C1.875 35.0201 2.23058 35.8785 2.86351 36.5115C3.49645 37.1444 4.35489 37.5 5.25 37.5H36C36.4432 37.5 36.8821 37.4127 37.2916 37.2431C37.701 37.0735 38.0731 36.8249 38.3865 36.5115C38.6999 36.1981 38.9485 35.826 39.1181 35.4166C39.2877 35.0071 39.375 34.5682 39.375 34.125V31.875H41.625C43.485 31.875 45 30.36 45 28.5V12.75C45 10.89 43.485 9.375 41.625 9.375H10.875C9.015 9.375 7.5 10.89 7.5 12.75ZM11.25 13.125V15H36C36.4432 15 36.8821 15.0873 37.2916 15.2569C37.701 15.4265 38.0731 15.6751 38.3865 15.9885C38.6999 16.3019 38.9485 16.674 39.1181 17.0834C39.2877 17.4929 39.375 17.9318 39.375 18.375V28.125H41.25V13.125H11.25ZM16.875 26.25C16.875 25.2554 17.2701 24.3016 17.9734 23.5984C18.6766 22.8951 19.6304 22.5 20.625 22.5C21.6196 22.5 22.5734 22.8951 23.2766 23.5984C23.9799 24.3016 24.375 25.2554 24.375 26.25C24.375 27.2446 23.9799 28.1984 23.2766 28.9016C22.5734 29.6049 21.6196 30 20.625 30C19.6304 30 18.6766 29.6049 17.9734 28.9016C17.2701 28.1984 16.875 27.2446 16.875 26.25Z" fill="black"/>
</svg>
