<svg width="45" height="42" viewBox="0 0 45 42" fill="none" xmlns="http://www.w3.org/2000/svg">
<path d="M22.5 0L45 9V12H42C42 12.4062 41.8398 12.7578 41.5195 13.0547C41.1992 13.3516 40.8203 13.5 40.3828 13.5H4.61719C4.17969 13.5 3.80078 13.3516 3.48047 13.0547C3.16016 12.7578 3 12.4062 3 12H0V9L22.5 0ZM6 15H12V33H15V15H21V33H24V15H30V33H33V15H39V33H40.3828C40.8203 33 41.1992 33.1484 41.5195 33.4453C41.8398 33.7422 42 34.0938 42 34.5V36H3V34.5C3 34.0938 3.16016 33.7422 3.48047 33.4453C3.80078 33.1484 4.17969 33 4.61719 33H6V15ZM43.3828 37.5C43.8203 37.5 44.1992 37.6484 44.5195 37.9453C44.8398 38.2422 45 38.5938 45 39V42H0V39C0 38.5938 0.160156 38.2422 0.480469 37.9453C0.800781 37.6484 1.17969 37.5 1.61719 37.5H43.3828Z" fill="black"/>
</svg>
